<?xml version="1.0"?>
<svg xmlns="http://www.w3.org/2000/svg" xmlns:xlink="http://www.w3.org/1999/xlink" xmlns:svgjs="http://svgjs.com/svgjs" version="1.1" width="512" height="512" x="0" y="0" viewBox="0 0 74 74" style="enable-background:new 0 0 512 512" xml:space="preserve" class=""><g><path xmlns="http://www.w3.org/2000/svg" d="m61 72h-9a1 1 0 0 1 -1-1v-5a1 1 0 0 1 1-1h9a1 1 0 0 1 1 1v5a1 1 0 0 1 -1 1zm-8-2h7v-3h-7z" fill="#6b7280" data-original="#000000" style=""/><path xmlns="http://www.w3.org/2000/svg" d="m22 72h-9a1 1 0 0 1 -1-1v-5a1 1 0 0 1 1-1h9a1 1 0 0 1 1 1v5a1 1 0 0 1 -1 1zm-8-2h7v-3h-7z" fill="#6b7280" data-original="#000000" style=""/><path xmlns="http://www.w3.org/2000/svg" d="m69 67h-64a3 3 0 0 1 -3-3v-46a3 3 0 0 1 3-3h64a3 3 0 0 1 3 3v46a3 3 0 0 1 -3 3zm-64-50a1 1 0 0 0 -1 1v46a1 1 0 0 0 1 1h64a1 1 0 0 0 1-1v-46a1 1 0 0 0 -1-1z" fill="#6b7280" data-original="#000000" style=""/><path xmlns="http://www.w3.org/2000/svg" d="m50 60h-36a5.006 5.006 0 0 1 -5-5v-28a5.006 5.006 0 0 1 5-5h36a5.006 5.006 0 0 1 5 5v28a5.006 5.006 0 0 1 -5 5zm-36-36a3 3 0 0 0 -3 3v28a3 3 0 0 0 3 3h36a3 3 0 0 0 3-3v-28a3 3 0 0 0 -3-3z" fill="#6b7280" data-original="#000000" style=""/><path xmlns="http://www.w3.org/2000/svg" d="m62.5 35a4.5 4.5 0 1 1 4.5-4.5 4.5 4.5 0 0 1 -4.5 4.5zm0-7a2.5 2.5 0 1 0 2.5 2.5 2.5 2.5 0 0 0 -2.5-2.5z" fill="#6b7280" data-original="#000000" style=""/><path xmlns="http://www.w3.org/2000/svg" d="m62.5 47a4.5 4.5 0 1 1 4.5-4.5 4.5 4.5 0 0 1 -4.5 4.5zm0-7a2.5 2.5 0 1 0 2.5 2.5 2.5 2.5 0 0 0 -2.5-2.5z" fill="#6b7280" data-original="#000000" style=""/><path xmlns="http://www.w3.org/2000/svg" d="m34.009 17h-.033a1 1 0 0 1 -.72-.341l-7-8a1 1 0 1 1 1.506-1.316l6.3 7.2 12.222-12.232a1 1 0 0 1 1.416 1.414l-12.984 12.982a1 1 0 0 1 -.707.293z" fill="#6b7280" data-original="#000000" style=""/></g></svg>
