<?xml version="1.0"?>
<svg xmlns="http://www.w3.org/2000/svg" xmlns:xlink="http://www.w3.org/1999/xlink" xmlns:svgjs="http://svgjs.com/svgjs" version="1.1" width="512" height="512" x="0" y="0" viewBox="0 0 512 512" style="enable-background:new 0 0 512 512" xml:space="preserve" class=""><g><g xmlns="http://www.w3.org/2000/svg"><path d="m348.381 366.289 163.619 47.193-58.354-95.214c37.458-34.73 58.354-83.111 58.354-134.588 0-101.282-82.044-183.68-183.32-183.68-68.739 0-133.065 39.652-164.04 100.978-93.028 9.565-164.64 88.137-164.64 182.702 0 51.478 21.246 99.858 58.705 134.588l-50.965 93.732 156.227-45.71c75.243 8.088 150.299-32.35 184.414-100.001zm-164.701 71.051c-7.489 0-14.935-.626-22.356-1.591l-92.984 28.088 28.315-52.898c-19.283-15.622-36.993-33-48.723-55.133-11.727-22.128-17.932-47.082-17.932-72.126 0-83.784 69.9-153.68 153.68-153.68 83.905 0 153.67 69.88 153.67 153.68 0 83.778-69.961 153.66-153.67 153.66zm175.438-99.147c27.257-87.695-16.563-184.654-100.265-222.161-18.797-8.423-38.998-13.635-59.522-15.375 28.087-43.668 77.404-70.657 129.349-70.657 84.734 0 153.67 68.94 153.67 153.68 0 25.015-6.173 50.038-17.932 72.126-11.78 22.127-29.419 39.494-48.723 55.133l28.315 52.898z" fill="#6d28d9" data-original="#000000" style="" class=""/></g></g></svg>
