<?xml version="1.0"?>
<svg xmlns="http://www.w3.org/2000/svg" xmlns:xlink="http://www.w3.org/1999/xlink" xmlns:svgjs="http://svgjs.com/svgjs" version="1.1" width="512" height="512" x="0" y="0" viewBox="0 0 511.998 511.998" style="enable-background:new 0 0 512 512" xml:space="preserve" class=""><g><g xmlns="http://www.w3.org/2000/svg"><path d="m431.665 139.258v-122.04h-351.332v122.04l-80.333 57.38v298.142h511.998v-298.142zm-249.673 202.811-151.992 108.564v-217.128zm74.007-15.994 194.191 138.705h-388.382zm74.007 15.994 151.992-108.564v217.127zm141.185-137.712-39.526 28.232v-56.464zm-69.526-157.139v206.8l-97.466 69.618-48.2-34.428-48.2 34.428-97.466-69.618v-206.8zm-321.332 185.372-39.526-28.232 39.526-28.232z" fill="#000000" data-original="#000000" style=""/><path d="m152.716 86.074h103.283v30h-103.283z" fill="#000000" data-original="#000000" style=""/><path d="m152.716 154.929h206.566v30h-206.566z" fill="#000000" data-original="#000000" style=""/><path d="m152.716 223.785h206.566v30h-206.566z" fill="#000000" data-original="#000000" style=""/></g></g></svg>
