<?xml version="1.0"?>
<svg xmlns="http://www.w3.org/2000/svg" xmlns:xlink="http://www.w3.org/1999/xlink" xmlns:svgjs="http://svgjs.com/svgjs" version="1.1" width="512" height="512" x="0" y="0" viewBox="0 0 501.333 501.333" style="enable-background:new 0 0 512 512" xml:space="preserve" class=""><g>
<g xmlns="http://www.w3.org/2000/svg">
	<g>
		<path d="M495.774,469.547L466.76,197.653c-1.387-13.013-12.053-26.987-26.773-26.987H357.32v-58.453    C357.32,51.413,308.467,0,250.654,0c-57.813,0-106.667,51.413-106.667,112.213v58.453H61.32    c-14.827,0-25.387,13.973-26.773,26.987L5.534,470.72c-0.853,7.893,1.707,15.787,6.933,21.653c5.013,5.653,12.267,8.96,19.84,8.96    H469c7.467,0,14.507-3.307,19.413-8.96C493.961,486.187,496.734,477.867,495.774,469.547z M343.347,244.693    c2.133,0.853,4.48,0.853,6.613,0l5.44,32.64h-17.493L343.347,244.693z M165.32,112.213c0-49.28,39.04-90.88,85.333-90.88    c46.293,0,85.333,41.6,85.333,90.88v58.453H165.32V112.213z M151.347,244.693c2.133,0.853,4.48,0.853,6.613,0l5.44,32.64h-17.493    L151.347,244.693z M472.521,478.187c-0.853,1.067-2.133,1.707-3.52,1.813H32.307c-1.493,0-2.987-0.64-4.053-1.813    c-1.28-1.387-1.813-3.307-1.6-5.12L55.667,200c0.427-4.053,3.84-7.893,5.653-7.893h82.667v21.333c-5.227,0-9.707,3.733-10.56,8.96    l-10.667,64c-0.96,5.867,2.987,11.307,8.853,12.267c0.533,0.107,1.173,0.107,1.707,0.107h42.667c5.867,0,10.667-4.8,10.667-10.667    c0-0.533,0-1.173-0.107-1.707l-10.667-64c-0.853-5.12-5.333-8.96-10.56-8.96v-21.333h170.667v21.333    c-5.227,0-9.707,3.733-10.56,8.96l-10.667,64c-0.96,5.76,2.987,11.307,8.747,12.267c0.533,0.107,1.173,0.107,1.707,0.107h42.667    c5.867,0,10.667-4.8,10.667-10.667c0-0.533,0-1.173-0.107-1.707l-10.667-64c-0.853-5.12-5.333-8.96-10.56-8.96v-21.333h82.667    c1.813,0,5.227,3.84,5.653,7.893l29.12,271.787C474.867,474.133,474.12,476.373,472.521,478.187z" fill="#000000" data-original="#000000" style="" class=""/>
	</g>
</g>
<g xmlns="http://www.w3.org/2000/svg">
</g>
<g xmlns="http://www.w3.org/2000/svg">
</g>
<g xmlns="http://www.w3.org/2000/svg">
</g>
<g xmlns="http://www.w3.org/2000/svg">
</g>
<g xmlns="http://www.w3.org/2000/svg">
</g>
<g xmlns="http://www.w3.org/2000/svg">
</g>
<g xmlns="http://www.w3.org/2000/svg">
</g>
<g xmlns="http://www.w3.org/2000/svg">
</g>
<g xmlns="http://www.w3.org/2000/svg">
</g>
<g xmlns="http://www.w3.org/2000/svg">
</g>
<g xmlns="http://www.w3.org/2000/svg">
</g>
<g xmlns="http://www.w3.org/2000/svg">
</g>
<g xmlns="http://www.w3.org/2000/svg">
</g>
<g xmlns="http://www.w3.org/2000/svg">
</g>
<g xmlns="http://www.w3.org/2000/svg">
</g>
</g></svg>
